<svg xmlns="http://www.w3.org/2000/svg" width="76px" height="76px">﻿<path fill="#000000" fill-opacity="1" stroke-linejoin="round" stroke-width="0.2" d="M 26.7982 56.6393 L 25.9063 56.0147 C 24.9211 55.3249 24.6817 53.9671 25.3715 52.9819 L 32.6323 42.6125 C 21.6823 25.6237 24.2725 20.4034 24.2725 20.4034 L 25.6103 19.4667 L 37.2248 36.0537 L 37.8618 35.1439 C 37.2672 34.7276 36.6726 34.3112 36.5018 32.9732 C 36.3311 31.6352 36.8071 29.5317 37.7663 27.2127 C 39.8704 23.2585 45.1783 19 45.1783 19 L 40.3602 28.2537 L 40.8062 28.566 L 48.3 21.1858 L 43.9278 30.7518 L 44.3738 31.0641 L 51.8676 23.6839 L 47.4955 33.2499 L 47.9414 33.5621 L 54.9892 25.8697 C 54.9892 25.8697 52.803 32.314 49.8069 35.6436 C 47.9558 37.3381 46.142 38.5049 44.8262 38.802 C 43.5105 39.0992 42.9159 38.6828 42.3213 38.2665 L 40.5477 40.7994 L 48.0929 51.575 C 48.7827 52.5602 48.5433 53.918 47.5581 54.6078 L 46.6662 55.2324 C 45.681 55.9222 44.3232 55.6827 43.6334 54.6976 L 37.3882 45.7786 L 36.7468 46.2277 L 29.831 56.1045 C 29.1412 57.0897 27.7834 57.3291 26.7982 56.6393 Z" /></svg>