<svg xmlns="http://www.w3.org/2000/svg" width="76px" height="76px">﻿<path fill="#000000" fill-opacity="1" stroke-linejoin="round" stroke-width="0.2" d="M 53.2929 21.2929 L 54.7071 22.7071 C 56.4645 24.4645 56.4645 27.3137 54.7071 29.0711 L 52.2323 31.5459 L 44.4541 23.7677 L 46.9289 21.2929 C 48.6863 19.5355 51.5355 19.5355 53.2929 21.2929 Z M 31.7262 52.052 L 23.948 44.2738 L 43.0399 25.182 L 50.818 32.9601 L 31.7262 52.052 Z M 23.2409 47.1023 L 28.8977 52.7591 L 21.0463 54.9537 L 23.2409 47.1023 Z M 17 28 L 17 23 L 23 23 L 23 17 L 28 17 L 28 23 L 34 23 L 34 28 L 28 28 L 28 34 L 23 34 L 23 28 L 17 28 Z" /></svg>