<svg xmlns="http://www.w3.org/2000/svg" width="76px" height="76px">﻿<path fill="#000000" fill-opacity="1" stroke-linejoin="round" stroke-width="0.2" d="M 48 30 L 55.75 30 L 48 22.25 L 48 30 Z M 57 33 L 44 33 L 44 21 L 29 21 L 29 31.25 L 25 27.25 L 25 17 L 48.25 17 L 61 29.75 L 61 59 L 25 59 L 25 41.75 L 29 45.75 L 29 55 L 57 55 L 57 33 Z M 24.5417 28.5 L 39.5833 43.5417 L 34.0417 49.0833 L 19 34.0417 L 24.5417 28.5 Z M 17.8125 32.8542 L 14.6458 30.314 C 13.6303 29.2984 14.0262 27.1405 15.0417 26.125 L 16.625 24.5417 C 17.6405 23.5262 19.5678 23.1303 20.5833 24.1459 L 23.3541 27.3126 L 17.8125 32.8542 Z M 41.9715 52.25 L 35.2292 50.2709 L 40.7708 44.7292 L 42.6216 51.5999 L 41.9715 52.25 Z" /></svg>